<?xml version="1.0" encoding="UTF-8"?><svg id="Layer_1" xmlns="http://www.w3.org/2000/svg" viewBox="0 0 51.64 64.53"><defs><style>.cls-1{fill:none;}.cls-2{fill:#b15529;}</style></defs><rect class="cls-1" y="3.24" width="267" height="68"/><path class="cls-2" d="M13.97,28.73c-1.94-3.24-3.02-6.84-3.02-10.58,0-9.65,8.06-14.91,12.6-14.91h5.4l21.6,57.6h-5.4l-6.62-17.57c-9.86-.79-19.15-6.19-24.05-13.75L2.74,60.84h-.79S13.97,28.73,13.97,28.73ZM23.26,3.96c-5.11.22-11.52,5.62-11.52,14.54,0,3.24.94,6.34,2.66,9.15L23.26,3.96ZM14.91,28.44c4.39,6.55,13.03,11.31,22.68,12.24L23.98,4.31l-9.07,24.12h0Z"/></svg>