<svg width="202" height="40" viewBox="0 0 202 40" fill="none" xmlns="http://www.w3.org/2000/svg">
<path d="M20.88 23.792C20.88 23.824 20.88 23.856 20.88 23.888C20.912 23.888 20.944 23.888 20.976 23.888H39.696V38H0.96C0.96 36.016 0.96 34.032 0.96 32.048C0.96 30.064 0.96 28.08 0.96 26.096C0.96 24.08 0.96 22.08 0.96 20.096C0.96 18.112 0.96 16.128 0.96 14.144C0.96 12.128 0.96 10.112 0.96 8.096C0.96 6.048 0.96 4.016 0.96 2H20.88C20.88 3.824 20.88 5.648 20.88 7.472C20.88 9.264 20.88 11.072 20.88 12.896C20.88 14.72 20.88 16.544 20.88 18.368C20.88 20.16 20.88 21.968 20.88 23.792ZM67.1925 0.559999C73.0805 0.559999 77.9765 1.392 81.8805 3.056C85.7845 4.72 88.7125 7.008 90.6645 9.92C92.6165 12.832 93.5925 16.176 93.5925 19.952C93.5925 22 93.2885 23.984 92.6805 25.904C92.0725 27.792 91.1125 29.568 89.8005 31.232C88.4885 32.864 86.7925 34.304 84.7125 35.552C82.6325 36.768 80.1365 37.712 77.2245 38.384C74.3445 39.088 71.0005 39.44 67.1925 39.44C64.4725 39.44 61.9765 39.248 59.7045 38.864C57.4645 38.512 55.4325 38.016 53.6085 37.376C51.7845 36.704 50.1685 35.904 48.7605 34.976C47.3845 34.048 46.1845 33.024 45.1605 31.904C44.1685 30.752 43.3365 29.536 42.6645 28.256C42.0245 26.976 41.5445 25.632 41.2245 24.224C40.9365 22.816 40.7925 21.392 40.7925 19.952C40.7925 18.064 41.0325 16.272 41.5125 14.576C42.0245 12.88 42.7605 11.312 43.7205 9.872C44.7125 8.432 45.9285 7.152 47.3685 6.032C48.8405 4.88 50.5525 3.904 52.5045 3.104C54.4565 2.272 56.6485 1.648 59.0805 1.232C61.5445 0.783998 64.2485 0.559999 67.1925 0.559999ZM67.2405 15.824C66.1205 15.824 65.1605 15.952 64.3605 16.208C63.5925 16.432 62.9685 16.752 62.4885 17.168C62.0405 17.552 61.7045 18 61.4805 18.512C61.2885 18.992 61.1925 19.488 61.1925 20C61.1925 20.672 61.3845 21.328 61.7685 21.968C62.1525 22.608 62.7925 23.136 63.6885 23.552C64.5845 23.968 65.7685 24.176 67.2405 24.176C68.1045 24.176 68.8565 24.096 69.4965 23.936C70.1685 23.776 70.7285 23.568 71.1765 23.312C71.6565 23.024 72.0405 22.704 72.3285 22.352C72.6485 21.968 72.8725 21.584 73.0005 21.2C73.1285 20.784 73.1925 20.368 73.1925 19.952C73.1925 19.472 73.0805 18.992 72.8565 18.512C72.6645 18.032 72.3445 17.6 71.8965 17.216C71.4485 16.8 70.8405 16.464 70.0725 16.208C69.3045 15.952 68.3605 15.824 67.2405 15.824ZM121.006 0.559999C126.702 0.559999 131.406 1.264 135.118 2.672C138.83 4.08 141.678 6 143.662 8.432C145.646 10.832 146.894 13.552 147.406 16.592L126.67 21.488C127.022 20.272 127.038 19.216 126.718 18.32C126.398 17.424 125.758 16.72 124.798 16.208C123.838 15.696 122.558 15.44 120.958 15.44C119.454 15.44 118.254 15.648 117.358 16.064C116.494 16.48 115.87 17.008 115.486 17.648C115.134 18.256 114.958 18.912 114.958 19.616C114.958 20.128 115.07 20.624 115.294 21.104C115.518 21.552 115.87 21.968 116.35 22.352C116.83 22.736 117.454 23.04 118.222 23.264C118.99 23.488 119.902 23.6 120.958 23.6C122.59 23.6 123.854 23.424 124.75 23.072C125.646 22.688 126.286 22.16 126.67 21.488C126.158 23.376 125.646 25.28 125.134 27.2C124.622 29.12 124.094 31.056 123.55 33.008C123.038 34.928 122.526 36.832 122.014 38.72C121.15 38.88 120.302 38.992 119.47 39.056C118.67 39.152 117.71 39.2 116.59 39.2C114.158 39.2 111.918 38.976 109.87 38.528C107.854 38.08 106.03 37.456 104.398 36.656C102.766 35.824 101.326 34.832 100.078 33.68C98.8621 32.528 97.8381 31.248 97.0061 29.84C96.2061 28.4 95.5981 26.864 95.1821 25.232C94.7661 23.568 94.5581 21.84 94.5581 20.048C94.5581 18.576 94.7021 17.152 94.9901 15.776C95.3101 14.368 95.7901 13.024 96.4301 11.744C97.1021 10.432 97.9501 9.216 98.9741 8.096C99.9981 6.944 101.198 5.92 102.574 5.024C103.982 4.096 105.598 3.296 107.422 2.624C109.246 1.952 111.278 1.44 113.518 1.088C115.79 0.735998 118.286 0.559999 121.006 0.559999ZM126.67 38C126.67 36.144 126.67 34.304 126.67 32.48C126.67 30.656 126.67 28.832 126.67 27.008C126.67 25.152 126.67 23.312 126.67 21.488C128.942 21.488 131.198 21.488 133.438 21.488C135.71 21.488 137.982 21.488 140.254 21.488C142.526 21.488 144.782 21.488 147.022 21.488V38H126.67ZM175.146 0.559999C181.034 0.559999 185.93 1.392 189.834 3.056C193.738 4.72 196.666 7.008 198.618 9.92C200.57 12.832 201.546 16.176 201.546 19.952C201.546 22 201.242 23.984 200.634 25.904C200.026 27.792 199.066 29.568 197.754 31.232C196.442 32.864 194.746 34.304 192.666 35.552C190.586 36.768 188.09 37.712 185.178 38.384C182.298 39.088 178.954 39.44 175.146 39.44C172.426 39.44 169.93 39.248 167.658 38.864C165.418 38.512 163.386 38.016 161.562 37.376C159.738 36.704 158.122 35.904 156.714 34.976C155.338 34.048 154.138 33.024 153.114 31.904C152.122 30.752 151.29 29.536 150.618 28.256C149.978 26.976 149.498 25.632 149.178 24.224C148.89 22.816 148.746 21.392 148.746 19.952C148.746 18.064 148.986 16.272 149.466 14.576C149.978 12.88 150.714 11.312 151.674 9.872C152.666 8.432 153.882 7.152 155.322 6.032C156.794 4.88 158.506 3.904 160.458 3.104C162.41 2.272 164.602 1.648 167.034 1.232C169.498 0.783998 172.202 0.559999 175.146 0.559999ZM175.194 15.824C174.074 15.824 173.114 15.952 172.314 16.208C171.546 16.432 170.922 16.752 170.442 17.168C169.994 17.552 169.658 18 169.434 18.512C169.242 18.992 169.146 19.488 169.146 20C169.146 20.672 169.338 21.328 169.722 21.968C170.106 22.608 170.746 23.136 171.642 23.552C172.538 23.968 173.722 24.176 175.194 24.176C176.058 24.176 176.81 24.096 177.45 23.936C178.122 23.776 178.682 23.568 179.13 23.312C179.61 23.024 179.994 22.704 180.282 22.352C180.602 21.968 180.826 21.584 180.954 21.2C181.082 20.784 181.146 20.368 181.146 19.952C181.146 19.472 181.034 18.992 180.81 18.512C180.618 18.032 180.298 17.6 179.85 17.216C179.402 16.8 178.794 16.464 178.026 16.208C177.258 15.952 176.314 15.824 175.194 15.824Z" fill="#33170B"/>
</svg>
