<?xml version="1.0" encoding="UTF-8"?><svg id="Layer_1" xmlns="http://www.w3.org/2000/svg" viewBox="0 0 267 79.92"><defs><style>.cls-1{fill:none;}.cls-2{fill:#b15529;}</style></defs><rect class="cls-1" x="0" y="7.2" width="267" height="68"/><path class="cls-2" d="M13.97,32.69c-1.94-3.24-3.02-6.84-3.02-10.58,0-9.65,8.06-14.91,12.6-14.91h5.4l21.6,57.6h-5.4l-6.62-17.57c-9.86-.79-19.15-6.19-24.05-13.75l-11.74,31.32h-.79l12.02-32.11ZM23.26,7.92c-5.11.22-11.52,5.62-11.52,14.54,0,3.24.94,6.34,2.66,9.15L23.26,7.92ZM14.91,32.4c4.39,6.55,13.03,11.31,22.68,12.24L23.98,8.27l-9.07,24.12Z"/><path class="cls-2" d="M68.33,7.19h22.47v.94h-16.99v56.67h-5.04c-2.09-21.82-19.87-21.89-19.87-37.08,0-11.74,10.58-20.52,19.44-20.52ZM68.76,54.79V8.13h-.43c-9.5,0-18.72,9.65-18.72,19.51,0,11.95,13.32,14.55,19.15,27.15Z"/><path class="cls-2" d="M135.58,7.19v.94h-16.99v23.4h13.39v.94h-13.39v31.39h16.99v.94h-22.03c-2.09-21.82-19.87-21.89-19.87-37.08,0-11.74,10.58-20.52,19.44-20.52h22.47ZM113.55,54.79V8.13h-.43c-9.5,0-18.72,9.65-18.72,19.51,0,11.95,13.32,14.55,19.15,27.15Z"/><path class="cls-2" d="M160.49,7.19h5.04v56.67h16.99v.94h-22.47c-8.86,0-19.44-8.79-19.44-20.52,0-15.19,17.79-15.27,19.87-37.08ZM160.49,63.86V17.2c-5.83,12.6-19.15,15.19-19.15,27.15,0,9.86,9.22,19.51,18.72,19.51h.43Z"/><path class="cls-2" d="M188.64,7.19h5.04v57.6h-5.04V7.19Z"/><path class="cls-2" d="M241.71,7.19v.94h-16.99v23.4h13.39v.94h-13.39v31.39h16.99v.94h-22.03c-2.09-21.82-19.87-21.89-19.87-37.08,0-11.74,10.58-20.52,19.44-20.52h22.47ZM219.67,54.79V8.13h-.43c-9.5,0-18.72,9.65-18.72,19.51,0,11.95,13.32,14.55,19.15,27.15Z"/></svg>