<svg width="1353" height="111" viewBox="0 0 1353 111" fill="none" xmlns="http://www.w3.org/2000/svg">
<g opacity="0.34" clip-path="url(#clip0_118_18)">
<path d="M982.019 98.8968C1001.2 74.2234 1049.59 72.3079 1084.19 76.6536C1127.27 81.9971 1173.99 99.7114 1223.55 102.845C1249.7 104.275 1281.92 93.5265 1280.89 71.0663C1280.95 68.3158 1279.42 62.0805 1277.61 58.7719C1272.26 48.6442 1259.56 46.6302 1257.15 48.6199C1256.02 49.6274 1256.14 51.8987 1256.82 53.3129C1257.94 55.8634 1261.88 58.5951 1266.78 60.6974C1276.65 65.1041 1287.72 67.923 1298.91 68.8243C1309.5 69.6489 1317.82 67.8202 1327.77 59.7613C1344.92 45.9857 1352.64 24.8266 1350.06 5.72002L1350.92 5.59523C1357.34 35.8363 1337.03 64.066 1316.45 71.5274C1301.92 76.9546 1278.45 72.0717 1263.71 66.0169C1258.37 63.8129 1252.77 60.9019 1249.99 55.9767C1248.68 53.5269 1248.33 50.7505 1249.08 48.1021C1252.04 36.8776 1276.07 39.566 1285.19 55.756C1289.48 64.3678 1290.24 71.3085 1288.74 78.5735C1283.24 101.351 1250.99 111.923 1222.95 110.212C1171.87 106.647 1121.18 87.2865 1083.14 81.5474C1050.14 76.523 1002.92 76.5729 982.701 99.3269L981.989 98.8715L982.019 98.8968Z" fill="#B28774"/>
</g>
<g opacity="0.34" clip-path="url(#clip1_118_18)">
<path d="M370.151 93.8968C350.967 69.2234 302.585 67.3079 267.984 71.6536C224.896 76.9971 178.177 94.7114 128.615 97.8447C102.469 99.2748 70.248 88.5265 71.2803 66.0663C71.2165 63.3158 72.7498 57.0805 74.555 53.7719C79.9109 43.6442 92.611 41.6302 95.0184 43.6199C96.1478 44.6274 96.0328 46.8987 95.3524 48.3129C94.2287 50.8634 90.2855 53.5951 85.3916 55.6974C75.515 60.1041 64.4486 62.923 53.2604 63.8243C42.6657 64.6489 34.3522 62.8202 24.3961 54.7613C7.24806 40.9857 -0.473392 19.8266 2.10768 0.720016L1.24673 0.595234C-5.17487 30.8363 15.1426 59.066 35.7235 66.5274C50.2461 71.9546 73.7157 67.0717 88.4573 61.0169C93.7963 58.8129 99.4012 55.9019 102.183 50.9767C103.485 48.5269 103.837 45.7505 103.091 43.1021C100.134 31.8776 76.0971 34.566 66.9815 50.756C62.6917 59.3678 61.9312 66.3085 63.427 73.5735C68.925 96.3513 101.175 106.923 129.221 105.212C180.296 101.647 230.989 82.2865 269.03 76.5474C302.027 71.523 349.25 71.5729 369.469 94.3269L370.181 93.8715L370.151 93.8968Z" fill="#B28774"/>
</g>
<defs>
<clipPath id="clip0_118_18">
<rect width="370" height="105" fill="white" transform="translate(982.17 5) rotate(0.0924783)"/>
</clipPath>
<clipPath id="clip1_118_18">
<rect width="370" height="105" fill="white" transform="matrix(-0.999999 0.00161405 0.00161405 0.999999 370 0)"/>
</clipPath>
</defs>
</svg>
